<?xml version="1.0" encoding="UTF-8"?>
<svg width="16px" height="24px" viewBox="0 0 16 24" version="1.1" xmlns="http://www.w3.org/2000/svg" xmlns:xlink="http://www.w3.org/1999/xlink">
    <!-- Generator: Sketch 60 (88103) - https://sketch.com -->
    <title>allergène</title>
    <desc>Created with Sketch.</desc>
    <defs>
        <polygon id="path-1" points="0 0.000126315789 15.1310526 0.000126315789 15.1310526 23.7329684 0 23.7329684"></polygon>
    </defs>
    <g id="Site-Yuka" stroke="none" stroke-width="1" fill="none" fill-rule="evenodd">
        <g id="1.0-Accueil-web" transform="translate(-1009.000000, -2502.000000)">
            <g id="Produits-cosmétiques" transform="translate(150.000000, 2240.000000)">
                <g id="produit" transform="translate(630.000000, 0.000000)">
                    <g id="allergènes" transform="translate(210.000000, 249.000000)">
                        <g id="allergène" transform="translate(19.000000, 13.000000)">
                            <mask id="mask-2" fill="white">
                                <use xlink:href="#path-1"></use>
                            </mask>
                            <g id="Clip-2"></g>
                            <path d="M13.9651579,5.98244211 C13.5003158,6.17570526 12.9742105,5.95465263 12.7803158,5.49044211 C12.5864211,5.0256 12.8081053,4.50012632 13.2729474,4.30686316 C13.7384211,4.1136 14.2638947,4.33465263 14.4577895,4.79886316 C14.646,5.26370526 14.4306316,5.79423158 13.9651579,5.98244211 L13.9651579,5.98244211 Z M1.86031579,11.1272842 C1.39547368,11.3205474 0.869368421,11.0994947 0.675473684,10.6346526 C0.481578947,10.1704421 0.703263158,9.64496842 1.16810526,9.45170526 C1.63357895,9.25781053 2.15905263,9.47886316 2.35294737,9.94370526 C2.54115789,10.4028632 2.32578947,10.9333895 1.86031579,11.1272842 L1.86031579,11.1272842 Z M13.2716842,11.1291789 C12.8055789,10.9352842 12.5895789,10.4085474 12.7777895,9.94307368 C12.9723158,9.47696842 13.4990526,9.26033684 13.9645263,9.44917895 C14.43,9.64307368 14.6466316,10.1698105 14.4577895,10.6359158 C14.2638947,11.1013895 13.7314737,11.3173895 13.2716842,11.1291789 L13.2716842,11.1291789 Z M1.16684211,5.98244211 C0.700736842,5.78854737 0.484736842,5.26244211 0.672947368,4.7976 C0.867473684,4.33212632 1.39357895,4.11612632 1.85968421,4.30433684 C2.32515789,4.49823158 2.54178947,5.02433684 2.35294737,5.48917895 C2.15905263,5.95465263 1.62663158,6.17633684 1.16684211,5.98244211 L1.16684211,5.98244211 Z M9.14873684,14.2681263 C8.95547368,13.8089684 9.17652632,13.2765474 9.64073684,13.0832842 C10.1055789,12.8893895 10.6304211,13.1104421 10.8243158,13.5759158 C11.0175789,14.0357053 10.7965263,14.5674947 10.3323158,14.7613895 C9.87315789,14.9496 9.342,14.7279158 9.14873684,14.2681263 L9.14873684,14.2681263 Z M4.30705263,1.86075789 C4.11315789,1.39528421 4.33421053,0.869178947 4.79905263,0.675284211 C5.26326316,0.482021053 5.78873684,0.703073684 5.98263158,1.16854737 C6.17589474,1.63402105 5.95484211,2.16012632 5.49,2.35402105 C5.02578947,2.54223158 4.50031579,2.32054737 4.30705263,1.86075789 L4.30705263,1.86075789 Z M12.7462105,3.66770526 C12.3906316,4.02265263 11.8133684,4.02265263 11.4634737,3.66770526 C11.1085263,3.31212632 11.1085263,2.73486316 11.4634737,2.38496842 C11.8190526,2.02938947 12.3963158,2.02938947 12.7462105,2.38496842 C13.1017895,2.73486316 13.1017895,3.31212632 12.7462105,3.66770526 L12.7462105,3.66770526 Z M3.366,13.0498105 C3.01168421,13.4034947 2.43568421,13.4034947 2.08136842,13.0498105 C1.72705263,12.6954947 1.72705263,12.1194947 2.08136842,11.7651789 C2.43568421,11.4108632 3.01168421,11.4108632 3.366,11.7651789 C3.72031579,12.1194947 3.72031579,12.6954947 3.366,13.0498105 L3.366,13.0498105 Z M14.2234737,8.47338947 C13.7251579,8.47338947 13.3152632,8.06917895 13.3152632,7.56581053 C13.3152632,7.06749474 13.7194737,6.6576 14.2234737,6.6576 C14.7268421,6.6576 15.1310526,7.06181053 15.1310526,7.56581053 C15.1310526,8.06917895 14.7268421,8.47338947 14.2234737,8.47338947 L14.2234737,8.47338947 Z M0.907894737,8.47338947 C0.409578947,8.47338947 -0.000315789474,8.06917895 -0.000315789474,7.56581053 C-0.000315789474,7.06181053 0.403894737,6.6576 0.907894737,6.6576 C1.41189474,6.6576 1.81547368,7.06181053 1.81547368,7.56581053 C1.81547368,8.06917895 1.40621053,8.47338947 0.907894737,8.47338947 L0.907894737,8.47338947 Z M11.4628421,13.0498105 C11.1085263,12.6954947 11.1085263,12.1194947 11.4628421,11.7651789 C11.8171579,11.4108632 12.3925263,11.4108632 12.7468421,11.7651789 C13.1011579,12.1194947 13.1011579,12.6954947 12.7468421,13.0498105 C12.3868421,13.4034947 11.8171579,13.4034947 11.4628421,13.0498105 L11.4628421,13.0498105 Z M2.08136842,3.66770526 C1.72705263,3.31212632 1.72705263,2.73486316 2.08136842,2.38496842 C2.43568421,2.02938947 3.01168421,2.02938947 3.366,2.38496842 C3.72031579,2.74054737 3.72031579,3.31781053 3.366,3.66770526 C3.006,4.02265263 2.43568421,4.02265263 2.08136842,3.66770526 L2.08136842,3.66770526 Z M6.65778947,14.5258105 C6.65778947,14.0274947 7.062,13.6182316 7.56536842,13.6182316 C8.06368421,13.6182316 8.47357895,14.0218105 8.47357895,14.5258105 C8.47357895,15.0241263 8.06936842,15.4333895 7.56536842,15.4333895 C7.06705263,15.4333895 6.65778947,15.0241263 6.65778947,14.5258105 L6.65778947,14.5258105 Z M6.65778947,0.907705263 C6.65778947,0.409389474 7.062,0.000126315789 7.56536842,0.000126315789 C8.06368421,0.000126315789 8.47357895,0.403705263 8.47357895,0.907705263 C8.47357895,1.40602105 8.06936842,1.81591579 7.56536842,1.81591579 C7.06705263,1.81591579 6.65778947,1.41170526 6.65778947,0.907705263 L6.65778947,0.907705263 Z M5.98515789,14.2668632 C5.79126316,14.7323368 5.26389474,14.9489684 4.79842105,14.7601263 C4.33231579,14.5662316 4.11631579,14.0394947 4.30452632,13.5740211 C4.49905263,13.1136 5.02578947,12.8912842 5.49126316,13.0801263 C5.95168421,13.2740211 6.174,13.8007579 5.98515789,14.2668632 L5.98515789,14.2668632 Z M10.8243158,1.85949474 C10.6304211,2.32496842 10.1043158,2.5416 9.63947368,2.35275789 C9.174,2.15886316 8.95863158,1.63212632 9.14684211,1.16665263 C9.34010526,0.701178947 9.86621053,0.484547368 10.3316842,0.673389474 C10.7965263,0.867284211 11.0182105,1.39402105 10.8243158,1.85949474 L10.8243158,1.85949474 Z M2.41484211,9.5736 L6.05021053,8.02496842 L2.11863158,8.02496842 C2.14136842,7.92517895 2.15273684,7.81970526 2.15273684,7.71423158 C2.15273684,7.60812632 2.14136842,7.50265263 2.11863158,7.40349474 L6.05021053,7.40349474 L2.42052632,5.85423158 C2.478,5.77212632 2.52915789,5.67865263 2.56894737,5.58517895 C2.60936842,5.48475789 2.63778947,5.3856 2.64915789,5.28581053 L6.27884211,6.83444211 L3.49926316,3.97781053 C3.58515789,3.92475789 3.66473684,3.86033684 3.73926316,3.78454737 C3.81315789,3.70749474 3.87631579,3.62602105 3.92747368,3.5376 L6.70642105,6.39423158 L5.20010526,2.66412632 C5.29736842,2.64644211 5.394,2.62307368 5.49126316,2.58202105 C5.58789474,2.54033684 5.67378947,2.48791579 5.75336842,2.42917895 L7.26031579,6.15928421 L7.26031579,2.11844211 C7.35757895,2.14181053 7.45989474,2.15381053 7.56284211,2.15381053 C7.66515789,2.15381053 7.76810526,2.14181053 7.86536842,2.11844211 L7.86536842,6.15928421 L9.37168421,2.42349474 C9.45189474,2.48223158 9.54284211,2.53465263 9.63442105,2.57570526 C9.73105263,2.61675789 9.82831579,2.64644211 9.92557895,2.65781053 L8.41863158,6.39991579 L11.1982105,3.54391579 C11.2493684,3.63170526 11.3118947,3.71381053 11.3864211,3.79023158 C11.4603158,3.86602105 11.5405263,3.93044211 11.6257895,3.98349474 L8.84684211,6.84012632 L12.4822105,5.29149474 C12.4992632,5.39128421 12.522,5.49107368 12.5617895,5.59086316 C12.6022105,5.69065263 12.6533684,5.77844211 12.7102105,5.86054737 L9.08052632,7.40917895 L13.0127368,7.40917895 C12.99,7.50896842 12.9786316,7.61381053 12.9786316,7.71991579 C12.9786316,7.82538947 12.99,7.93086316 13.0127368,8.03065263 L9.08052632,8.03065263 L12.7158947,9.57928421 C12.6590526,9.66138947 12.6078947,9.75486316 12.5674737,9.84896842 C12.5276842,9.94875789 12.4992632,10.0479158 12.4878947,10.1483368 L8.84684211,8.59970526 L11.6257895,11.4563368 C11.5405263,11.5087579 11.4603158,11.5731789 11.3864211,11.6496 C11.3118947,11.7260211 11.2493684,11.8081263 11.1982105,11.8959158 L8.41863158,9.03928421 L9.92557895,12.7757053 C9.82831579,12.7933895 9.73105263,12.8167579 9.63442105,12.8578105 C9.53715789,12.8988632 9.45189474,12.9519158 9.37168421,13.0100211 L7.86536842,9.27423158 L7.86536842,13.3150737 C7.76810526,13.2917053 7.66515789,13.2803368 7.56284211,13.2803368 C7.45989474,13.2803368 7.35757895,13.2917053 7.26031579,13.3150737 L7.26031579,9.27423158 L5.75336842,13.0043368 C5.67378947,12.9456 5.58221053,12.8931789 5.49126316,12.8521263 C5.394,12.8110737 5.29736842,12.7813895 5.20010526,12.7700211 L6.70642105,9.0336 L3.92747368,11.8902316 C3.87631579,11.8018105 3.81315789,11.7197053 3.73926316,11.6439158 C3.66473684,11.5674947 3.58515789,11.5030737 3.49926316,11.4500211 L6.27884211,8.59402105 L2.64915789,10.1420211 C2.63210526,10.0422316 2.60936842,9.94307368 2.56894737,9.84328421 C2.52347368,9.74917895 2.47231579,9.65507368 2.41484211,9.5736 L2.41484211,9.5736 Z M6.35526316,7.86833684 C6.35526316,8.53907368 6.89463158,9.07844211 7.56536842,9.07844211 C8.23673684,9.07844211 8.77610526,8.53907368 8.77610526,7.86833684 C8.77610526,7.19696842 8.23673684,6.6576 7.56536842,6.6576 C6.89463158,6.6576 6.35526316,7.19696842 6.35526316,7.86833684 L6.35526316,7.86833684 Z M6.65778947,23.7329684 L8.17105263,23.7329684 L8.17105263,16.3409684 L6.65778947,16.3409684 L6.65778947,23.7329684 Z" id="Fill-1" fill="#6C6C6C" mask="url(#mask-2)"></path>
                        </g>
                    </g>
                </g>
            </g>
        </g>
    </g>
</svg>