<?xml version="1.0" encoding="UTF-8"?>
<svg width="15px" height="23px" viewBox="0 0 15 23" version="1.1" xmlns="http://www.w3.org/2000/svg" xmlns:xlink="http://www.w3.org/1999/xlink">
    <title>fat</title>
    <g id="Page-1" stroke="none" stroke-width="1" fill="none" fill-rule="evenodd">
        <g id="Artboard" transform="translate(-514.000000, -559.000000)" fill="#737373" fill-rule="nonzero">
            <g id="Group-3" transform="translate(496.500000, 438.000000)">
                <g id="fat" transform="translate(17.519789, 121.500000)">
                    <path d="M7.47820943,0 C9.08803364,5.23496875 11.301354,7.08692187 14.0883071,12.1505313 C16.794436,17.0635352 12.7844633,22 7.47820943,22 C2.17281489,22 -1.83810307,17.0635352 0.869014113,12.1505313 C3.65497896,7.08692187 5.86928755,5.23496875 7.47820943,0 Z M3.19822288,13.1378652 C2.64593813,13.1378652 2.19822288,13.5855805 2.19822288,14.1378652 C2.19822288,17.2291737 4.70422355,19.7351744 7.79553205,19.7351744 C8.3478168,19.7351744 8.79553205,19.2874592 8.79553205,18.7351744 C8.79553205,18.1828897 8.3478168,17.7351744 7.79553205,17.7351744 C5.80879305,17.7351744 4.19822288,16.1246042 4.19822288,14.1378652 C4.19822288,13.5855805 3.75050763,13.1378652 3.19822288,13.1378652 Z" id="Combined-Shape"></path>
                </g>
            </g>
        </g>
    </g>
</svg>