<?xml version="1.0" encoding="UTF-8"?>
<svg width="18px" height="24px" viewBox="0 0 18 24" version="1.1" xmlns="http://www.w3.org/2000/svg" xmlns:xlink="http://www.w3.org/1999/xlink">
    <!-- Generator: Sketch 60 (88103) - https://sketch.com -->
    <title>fiole</title>
    <desc>Created with Sketch.</desc>
    <defs>
        <polygon id="path-1" points="0 0.58352 17.1648 0.58352 17.1648 20.79952 0 20.79952"></polygon>
    </defs>
    <g id="Site-Yuka" stroke="none" stroke-width="1" fill="none" fill-rule="evenodd">
        <g id="1.0-Accueil-web" transform="translate(-1008.000000, -2382.000000)">
            <g id="Produits-cosmétiques" transform="translate(150.000000, 2240.000000)">
                <g id="produit" transform="translate(630.000000, 0.000000)">
                    <g id="perturbateur" transform="translate(210.000000, 129.000000)">
                        <g id="fiole" transform="translate(18.000000, 13.000000)">
                            <path d="M8.20104,14.30384 C7.77224,14.30384 7.43784,13.97024 7.43784,13.54064 C7.43784,13.11184 7.77224,12.77824 8.20104,12.77824 C8.62984,12.77824 8.96424,13.11184 8.96424,13.54064 C8.96424,13.97024 8.58264,14.30384 8.20104,14.30384 M9.91784,13.54064 C9.91784,12.58704 9.15464,11.82464 8.20104,11.82464 C7.24744,11.82464 6.48424,12.58704 6.48424,13.54064 C6.48424,14.49504 7.24744,15.25744 8.20104,15.25744 C9.15464,15.25744 9.91784,14.49504 9.91784,13.54064" id="Fill-1" fill="#6C6C6C"></path>
                            <path d="M7.24728,2.10544 C7.38488,2.10544 7.47608,2.19744 7.47608,2.33424 C7.47608,2.47184 7.38488,2.56304 7.24728,2.56304 C7.10968,2.56304 7.01848,2.47184 7.01848,2.33424 C7.01848,2.19744 7.10968,2.10544 7.24728,2.10544 M7.24728,3.43264 C7.88808,3.43264 8.39128,2.92944 8.39128,2.28864 C8.39128,1.64784 7.88808,1.14464 7.24728,1.14464 C6.60648,1.14464 6.10328,1.64784 6.10328,2.28864 C6.10328,2.92944 6.60648,3.43264 7.24728,3.43264" id="Fill-3" fill="#6C6C6C"></path>
                            <path d="M10.68032,0.88 C10.81232,0.88 10.94432,1.0128 10.94432,1.1448 C10.94432,1.2768 10.81232,1.4088 10.68032,1.4088 C10.54832,1.4088 10.41632,1.2768 10.41632,1.1448 C10.41632,0.968 10.54832,0.88 10.68032,0.88 M10.68032,2.2888 C11.29632,2.2888 11.82432,1.7608 11.82432,1.1448 C11.82432,0.528 11.29632,-3.55271368e-15 10.68032,-3.55271368e-15 C10.06432,-3.55271368e-15 9.53632,0.528 9.53632,1.1448 C9.53632,1.7608 10.06432,2.2888 10.68032,2.2888" id="Fill-5" fill="#6C6C6C"></path>
                            <path d="M10.29888,15.72376 C10.46848,15.72376 10.59568,15.85096 10.59568,16.02056 C10.59568,16.19016 10.46848,16.31736 10.29888,16.31736 C10.12928,16.31736 10.00208,16.19016 10.00208,16.02056 C10.00208,15.85096 10.17168,15.72376 10.29888,15.72376 M9.15488,16.02056 C9.15488,16.65656 9.66288,17.16456 10.29888,17.16456 C10.93488,17.16456 11.44288,16.65656 11.44288,16.02056 C11.44288,15.38456 10.93488,14.87576 10.29888,14.87576 C9.70528,14.87576 9.15488,15.38456 9.15488,16.02056" id="Fill-7" fill="#6C6C6C"></path>
                            <g id="Group-11" transform="translate(0.000000, 2.849360)">
                                <mask id="mask-2" fill="white">
                                    <use xlink:href="#path-1"></use>
                                </mask>
                                <g id="Clip-10"></g>
                                <path d="M11.85216,14.64512 C11.30576,15.04912 10.80496,15.40912 9.80256,15.40912 C8.80096,15.40912 8.30016,15.04912 7.75376,14.64512 C7.16176,14.19552 6.47856,13.70192 5.15776,13.70192 C4.15616,13.70192 3.51856,13.97152 3.01776,14.33072 L6.84336,8.26592 C6.88816,8.17632 6.93376,8.13072 6.93376,8.04112 L6.93376,2.60512 C6.93376,2.33552 6.75216,2.15632 6.47856,2.15632 L5.97776,2.15632 L5.97776,1.48192 L11.26016,1.48192 L11.26016,2.15632 L10.75936,2.15632 L9.02896,2.15632 C8.75536,2.15632 8.57376,2.33552 8.57376,2.60512 C8.57376,2.87472 8.75536,3.05472 9.02896,3.05472 L10.25856,3.05472 L10.25856,7.99632 C10.25856,8.08592 10.30416,8.17632 10.34976,8.22112 L13.85616,13.74672 C12.89936,13.88112 12.35296,14.28592 11.85216,14.64512 M16.72496,16.71152 L14.94896,13.92672 L11.12336,7.90672 L11.12336,3.05472 L11.62496,3.05472 C11.89776,3.05472 12.08016,2.87472 12.08016,2.60512 L12.08016,1.03312 C12.08016,0.76272 11.89776,0.58352 11.62496,0.58352 L5.47696,0.58352 C5.20336,0.58352 5.02176,0.76272 5.02176,1.03312 L5.02176,2.60512 C5.02176,2.87472 5.20336,3.05472 5.47696,3.05472 L5.97776,3.05472 L5.97776,7.90672 L0.42176,16.71152 C-0.12464,17.56512 -0.12464,18.55392 0.33056,19.40752 C0.83216,20.26112 1.69696,20.79952 2.69856,20.79952 L14.44816,20.79952 C15.44976,20.79952 16.31536,20.30592 16.81616,19.40752 C17.31696,18.55392 17.27136,17.52032 16.72496,16.71152" id="Fill-9" fill="#6C6C6C" mask="url(#mask-2)"></path>
                            </g>
                        </g>
                    </g>
                </g>
            </g>
        </g>
    </g>
</svg>