<?xml version="1.0" encoding="UTF-8"?>
<svg width="24px" height="24px" viewBox="0 0 24 24" version="1.1" xmlns="http://www.w3.org/2000/svg" xmlns:xlink="http://www.w3.org/1999/xlink">
    <!-- Generator: Sketch 60 (88103) - https://sketch.com -->
    <title>irritant</title>
    <desc>Created with Sketch.</desc>
    <defs>
        <polygon id="path-1" points="0 0.342211765 23.7858353 0.342211765 23.7858353 1.20974118 0 1.20974118"></polygon>
        <polygon id="path-3" points="0.0465176471 0.580941176 12.3486353 0.580941176 12.3486353 12.8833412 0.0465176471 12.8833412"></polygon>
    </defs>
    <g id="Site-Yuka" stroke="none" stroke-width="1" fill="none" fill-rule="evenodd">
        <g id="1.0-Accueil-web" transform="translate(-1005.000000, -2442.000000)">
            <g id="Produits-cosmétiques" transform="translate(150.000000, 2240.000000)">
                <g id="produit" transform="translate(630.000000, 0.000000)">
                    <g id="irritants" transform="translate(210.000000, 189.000000)">
                        <g id="irritant" transform="translate(15.000000, 13.000000)">
                            <g id="Group-3" transform="translate(0.000000, 15.654494)">
                                <mask id="mask-2" fill="white">
                                    <use xlink:href="#path-1"></use>
                                </mask>
                                <g id="Clip-2"></g>
                                <path d="M0.433835294,1.20974118 C0.194541176,1.20974118 -0.000282352941,1.01562353 -0.000282352941,0.775623529 C-0.000282352941,0.536329412 0.194541176,0.342211765 0.433835294,0.342211765 L23.3524235,0.342211765 C23.5917176,0.342211765 23.7858353,0.536329412 23.7858353,0.775623529 C23.7858353,1.01562353 23.5917176,1.20974118 23.3524235,1.20974118 L0.433835294,1.20974118 Z" id="Fill-1" fill="#6C6C6C" mask="url(#mask-2)"></path>
                            </g>
                            <path d="M15.9945882,6.88609412 C15.9945882,9.14138824 14.1656471,10.9703294 11.9103529,10.9703294 C9.65505882,10.9703294 7.82611765,9.14138824 7.82611765,6.88609412 C7.82611765,4.6308 9.65505882,2.80185882 11.9103529,2.80185882 C14.1656471,2.80185882 15.9945882,4.6308 15.9945882,6.88609412" id="Fill-4" fill="#6C6C6C"></path>
                            <g id="Group-8" transform="translate(5.647059, 0.125082)">
                                <mask id="mask-4" fill="white">
                                    <use xlink:href="#path-3"></use>
                                </mask>
                                <g id="Clip-7"></g>
                                <path d="M6.19757647,12.8833412 C6.08604706,12.8833412 5.97592941,12.8805176 5.86651765,12.8741647 L5.9124,12.0080471 C6.35287059,12.0306353 6.80604706,11.9995765 7.24228235,11.9127529 L7.4124,12.7633412 C7.01428235,12.8424 6.60557647,12.8833412 6.19757647,12.8833412 L6.19757647,12.8833412 Z M4.33969412,12.5974588 C3.84557647,12.4414588 3.37192941,12.2219294 2.93216471,11.9452235 L3.39310588,11.2104 C3.77075294,11.4482824 4.17734118,11.6360471 4.60157647,11.7701647 L4.33969412,12.5974588 Z M8.88345882,12.2671059 L8.5044,11.4871059 C8.90463529,11.2929882 9.27945882,11.0473412 9.61969412,10.7579294 L10.1822824,11.4186353 C9.78628235,11.7553412 9.34934118,12.0412235 8.88345882,12.2671059 L8.88345882,12.2671059 Z M1.73287059,10.9626353 C1.37498824,10.5856941 1.06651765,10.1649882 0.815223529,9.71181176 L1.57404706,9.29110588 C1.79004706,9.68004706 2.05545882,10.0421647 2.36251765,10.3661647 L1.73287059,10.9626353 Z M11.2276941,10.2736941 L10.5182824,9.77392941 C10.7752235,9.40969412 10.9855765,9.01369412 11.1429882,8.59722353 L11.9540471,8.90428235 C11.7712235,9.38851765 11.5269882,9.84945882 11.2276941,10.2736941 L11.2276941,10.2736941 Z M0.239929412,8.26969412 C0.111458824,7.76992941 0.0465176471,7.25181176 0.0465176471,6.73228235 C0.0465176471,6.28687059 0.0945176471,5.84357647 0.1884,5.41298824 L1.03545882,5.59863529 C0.954988235,5.96851765 0.914047059,6.34969412 0.914047059,6.73228235 C0.914047059,7.17910588 0.969811765,7.62451765 1.08063529,8.0544 L0.239929412,8.26969412 Z M12.3140471,7.39510588 L11.4514588,7.30192941 C11.4712235,7.11487059 11.4811059,6.92287059 11.4811059,6.73228235 C11.4811059,6.47604706 11.4634588,6.21910588 11.4267529,5.96922353 L12.2858118,5.84498824 C12.3274588,6.13581176 12.3486353,6.4344 12.3486353,6.73228235 C12.3486353,6.95392941 12.3373412,7.17698824 12.3140471,7.39510588 L12.3140471,7.39510588 Z M11.0709882,4.68592941 C10.8987529,4.27581176 10.6742824,3.88757647 10.4032235,3.53251765 L11.0935765,3.00663529 C11.4084,3.42028235 11.6695765,3.87204706 11.8707529,4.34922353 L11.0709882,4.68592941 Z M1.48298824,4.34428235 L0.709341176,3.95110588 C0.943694118,3.48945882 1.23663529,3.05816471 1.57969412,2.66781176 L2.23051765,3.24098824 C1.93616471,3.57628235 1.68416471,3.94757647 1.48298824,4.34428235 L1.48298824,4.34428235 Z M9.46863529,2.58169412 C9.11851765,2.30498824 8.73451765,2.07416471 8.32722353,1.89487059 L8.67734118,1.10075294 C9.15169412,1.30969412 9.59851765,1.57934118 10.0065176,1.90051765 L9.46863529,2.58169412 Z M3.23004706,2.35934118 L2.74228235,1.64216471 C3.17216471,1.34992941 3.63734118,1.11275294 4.12581176,0.9384 L4.41804706,1.75510588 C3.99875294,1.90475294 3.59922353,2.10804706 3.23004706,2.35934118 L3.23004706,2.35934118 Z M7.05028235,1.51651765 C6.61404706,1.44592941 6.15734118,1.42969412 5.71828235,1.46992941 L5.63992941,0.605223529 C6.1524,0.559341176 6.68251765,0.577694118 7.19004706,0.660282353 L7.05028235,1.51651765 Z" id="Fill-6" fill="#6C6C6C" mask="url(#mask-4)"></path>
                            </g>
                            <path d="M5.09703529,20.3343529 L8.47115294,20.3343529 C8.47115294,20.3343529 8.22974118,17.9244706 6.68738824,17.9244706 C5.14503529,17.9244706 5.09703529,20.3343529 5.09703529,20.3343529" id="Fill-9" fill="#6C6C6C"></path>
                            <path d="M10.3024235,17.8279059 L13.6765412,17.8279059 C13.6765412,17.8279059 13.4351294,15.4180235 11.8927765,15.4180235 C10.3504235,15.4180235 10.3024235,17.8279059 10.3024235,17.8279059" id="Fill-11" fill="#6C6C6C"></path>
                            <path d="M15.3149647,20.3343529 L18.6890824,20.3343529 C18.6890824,20.3343529 18.4476706,17.9244706 16.9053176,17.9244706 C15.3629647,17.9244706 15.3149647,20.3343529 15.3149647,20.3343529" id="Fill-13" fill="#6C6C6C"></path>
                            <path d="M19.5564,17.1051529 L22.9305176,17.1051529 C22.9305176,17.1051529 22.6891059,14.6952706 21.1467529,14.6952706 C19.6051059,14.6952706 19.5564,17.1051529 19.5564,17.1051529" id="Fill-15" fill="#6C6C6C"></path>
                            <path d="M10.1577882,23.4191294 L13.5319059,23.4191294 C13.5319059,23.4191294 13.2904941,21.0092471 11.7481412,21.0092471 C10.2057882,21.0092471 10.1577882,23.4191294 10.1577882,23.4191294" id="Fill-17" fill="#6C6C6C"></path>
                            <path d="M0.952023529,17.3943529 L4.32543529,17.3943529 C4.32543529,17.3943529 4.08472941,14.9844706 2.54237647,14.9844706 C1.00002353,14.9844706 0.952023529,17.3943529 0.952023529,17.3943529" id="Fill-19" fill="#6C6C6C"></path>
                        </g>
                    </g>
                </g>
            </g>
        </g>
    </g>
</svg>