<?xml version="1.0" encoding="UTF-8"?>
<svg width="23px" height="23px" viewBox="0 0 23 23" version="1.1" xmlns="http://www.w3.org/2000/svg" xmlns:xlink="http://www.w3.org/1999/xlink">
    <title>salt</title>
    <g id="Page-1" stroke="none" stroke-width="1" fill="none" fill-rule="evenodd">
        <g id="salt" fill-rule="nonzero">
            <path d="M16.3625,11.5041667 L15.9958333,11.1375 L11.1375,15.9958333 L11.5041667,16.3625 C12.8333333,17.6916667 14.9416667,17.6458333 16.225,16.3625 L16.3166667,16.2708333 C17.6916667,14.9416667 17.6916667,12.8333333 16.3625,11.5041667 Z" id="Shape" fill="#6C6C6C"></path>
            <path d="M8.39430206,1.67449489 L14.5232913,10.2333004 L10.2138056,14.5427861 L1.12819602,9.23190697 C0.966847295,9.1397077 0.858342046,8.95230108 0.83654006,8.7783474 C0.812784467,8.56454707 0.881445363,8.37345257 1.02243234,8.22936952 L1.02243234,8.22936952 L1.78678611,7.50997773 L8.39430206,1.67449489 Z" id="Shape" stroke="#6C6C6C" stroke-width="1.22222222"></path>
            <path d="M13.5965898,8.96748478 L14.7513547,10.2933175 L10.2677098,14.7769625 L2.08198705,8.96748478 L13.5965898,8.96748478 Z" id="Shape-Copy" stroke="#6C6C6C" stroke-width="0.814814815" fill="#6C6C6C"></path>
            <path d="M19.8916667,17.1875 C19.525,17.1875 19.2041667,17.5083333 19.2041667,17.875 C19.2041667,18.2416667 19.525,18.5625 19.8916667,18.5625 C20.2583333,18.5625 20.5791667,18.2416667 20.5791667,17.875 C20.5791667,17.5083333 20.2583333,17.1875 19.8916667,17.1875 Z" id="Shape" stroke="#6C6C6C" stroke-width="0.5" fill="#6C6C6C"></path>
            <path d="M18.7,19.6166667 C18.3333333,19.6166667 18.0125,19.9375 18.0125,20.3041667 C18.0125,20.6708333 18.3333333,20.9916667 18.7,20.9916667 C19.0666667,20.9916667 19.3875,20.6708333 19.3875,20.3041667 C19.3875,19.9375 19.0666667,19.6166667 18.7,19.6166667 Z" id="Shape" stroke="#6C6C6C" stroke-width="0.5" fill="#6C6C6C"></path>
            <path d="M17.325,17.05 C16.9583333,17.05 16.6375,17.3708333 16.6375,17.7375 C16.6375,18.1041667 16.9583333,18.425 17.325,18.425 C17.6916667,18.425 18.0125,18.1041667 18.0125,17.7375 C18.0125,17.3708333 17.7375,17.05 17.325,17.05 Z" id="Shape" stroke="#6C6C6C" stroke-width="0.5" fill="#6C6C6C"></path>
            <path d="M21.0833333,20.4416667 C20.7166667,20.4416667 20.3958333,20.7625 20.3958333,21.1291667 C20.3958333,21.4958333 20.7166667,21.8166667 21.0833333,21.8166667 C21.45,21.8166667 21.7708333,21.4958333 21.7708333,21.1291667 C21.7708333,20.7166667 21.45,20.4416667 21.0833333,20.4416667 Z" id="Shape" stroke="#6C6C6C" stroke-width="0.5" fill="#6C6C6C"></path>
        </g>
    </g>
</svg>